<?xml version="1.0" encoding="utf-8"?>
<!-- Generator: Adobe Illustrator 24.0.1, SVG Export Plug-In . SVG Version: 6.00 Build 0)  -->
<svg version="1.1" id="Layer_1" xmlns="http://www.w3.org/2000/svg" xmlns:xlink="http://www.w3.org/1999/xlink" x="0px" y="0px"
	 viewBox="0 0 457.12 457.12" style="enable-background:new 0 0 457.12 457.12;" xml:space="preserve">
<style type="text/css">
	.st0{fill:none;stroke:#A2A9AD;stroke-width:10;stroke-linecap:round;stroke-linejoin:round;stroke-miterlimit:10;}
</style>
<path class="st0" d="M216.17,95.4c94.84,24.29,203.55,22.79,203.55,22.79L228.56,7.83C228.56,7.83,228.76,44.56,216.17,95.4z"/>
<path class="st0" d="M228.56,449.29l191.15-110.36V118.19C419.71,118.19,229.76,231.18,228.56,449.29z"/>
<path class="st0" d="M228.56,7.83l-95.58,55.18c23.57,14.08,52.66,24.57,83.19,32.39C228.76,44.56,228.56,7.83,228.56,7.83z"/>
<path class="st0" d="M419.71,118.19c0,0-108.71,1.5-203.55-22.79c-18.46,74.55-64.4,179.47-178.76,243.52l191.15,110.36
	C229.76,231.18,419.71,118.19,419.71,118.19z"/>
<path class="st0" d="M216.17,95.4c-30.53-7.82-59.62-18.31-83.19-32.39L37.4,118.19v220.73C151.77,274.88,197.71,169.96,216.17,95.4
	z"/>
</svg>
