<?xml version="1.0" encoding="utf-8"?>
<!-- Generator: Adobe Illustrator 24.0.1, SVG Export Plug-In . SVG Version: 6.00 Build 0)  -->
<svg version="1.1" id="Layer_1" xmlns="http://www.w3.org/2000/svg" xmlns:xlink="http://www.w3.org/1999/xlink" x="0px" y="0px"
	 viewBox="0 0 457.12 457.12" style="enable-background:new 0 0 457.12 457.12;" xml:space="preserve">
<style type="text/css">
	.st0{fill:none;stroke:#A2A9AD;stroke-width:10;stroke-linecap:round;stroke-linejoin:round;stroke-miterlimit:10;}
</style>
<path class="st0" d="M221.42,94.59c94.84,24.29,203.55,22.79,203.55,22.79L233.81,7.02C233.81,7.02,234.01,43.75,221.42,94.59z"/>
<path class="st0" d="M233.81,448.47l191.15-110.36V117.38C424.96,117.38,235.01,230.37,233.81,448.47z"/>
<path class="st0" d="M233.81,7.02L138.23,62.2c23.57,14.08,52.66,24.57,83.19,32.39C234.01,43.75,233.81,7.02,233.81,7.02z"/>
<path class="st0" d="M424.96,117.38c0,0-108.71,1.5-203.55-22.79c-18.46,74.55-64.4,179.47-178.76,243.52L233.8,448.47
	C235.01,230.37,424.96,117.38,424.96,117.38z"/>
<path class="st0" d="M221.42,94.59c-30.53-7.82-59.62-18.31-83.19-32.39l-95.58,55.18v220.73
	C157.02,274.06,202.96,169.14,221.42,94.59z"/>
</svg>
