<?xml version="1.0" encoding="utf-8"?>
<!-- Generator: Adobe Illustrator 24.0.1, SVG Export Plug-In . SVG Version: 6.00 Build 0)  -->
<svg version="1.1" id="Layer_1" xmlns="http://www.w3.org/2000/svg" xmlns:xlink="http://www.w3.org/1999/xlink" x="0px" y="0px"
	 viewBox="0 0 457.12 457.12" style="enable-background:new 0 0 457.12 457.12;" xml:space="preserve">
<style type="text/css">
	.st0{fill:none;stroke:#A2A9AD;stroke-width:10;stroke-linecap:round;stroke-linejoin:round;stroke-miterlimit:10;}
</style>
<path class="st0" d="M419.71,118.19L228.56,7.83l-95.58,55.18l0,0C229.74,120.8,419.6,118.2,419.71,118.19z"/>
<path class="st0" d="M132.99,63.01L132.99,63.01l-95.58,55.18c0,0,190.15,112.99,191.15,331.09l191.15-110.36l-95.58,55.18
	C323.14,176.18,133.3,63.2,132.99,63.01z"/>
<path class="st0" d="M37.41,118.19v220.73l191.15,110.36C227.56,231.18,37.41,118.19,37.41,118.19z"/>
<polygon class="st0" points="419.71,118.19 419.71,118.19 419.71,338.92 "/>
<path class="st0" d="M132.98,63.01L132.98,63.01L132.98,63.01z"/>
<path class="st0" d="M419.71,118.19c-0.11,0-189.97,2.61-286.73-55.18c0.31,0.19,190.15,113.17,191.15,331.09l95.58-55.18
	L419.71,118.19L419.71,118.19z"/>
<polygon class="st0" points="132.98,63.01 132.98,63.01 132.99,63.01 "/>
</svg>
