<?xml version="1.0" encoding="utf-8"?>
<!-- Generator: Adobe Illustrator 24.0.1, SVG Export Plug-In . SVG Version: 6.00 Build 0)  -->
<svg version="1.1" id="Layer_1" xmlns="http://www.w3.org/2000/svg" xmlns:xlink="http://www.w3.org/1999/xlink" x="0px" y="0px"
	 viewBox="0 0 457.12 457.12" style="enable-background:new 0 0 457.12 457.12;" xml:space="preserve">
<style type="text/css">
	.st0{fill:none;stroke:#A2A9AD;stroke-width:10;stroke-linecap:round;stroke-linejoin:round;stroke-miterlimit:10;}
</style>
<g>
	<path class="st0" d="M2209.73,1158.16l-191.15-110.36l-191.15,110.36l0,0c0,0,190.15,112.99,191.15,331.09l0,0
		C2017.58,1271.15,2209.73,1158.16,2209.73,1158.16z"/>
	<path class="st0" d="M1827.42,1158.16v220.73l191.15,110.36C2017.58,1271.16,1827.43,1158.17,1827.42,1158.16z"/>
	<path class="st0" d="M2018.58,1489.25l191.15-110.36v-220.73C2209.73,1158.16,2017.58,1271.15,2018.58,1489.25z"/>
</g>
<path class="st0" d="M424.96,117.38L233.81,7.02L138.23,62.2l0,0C234.99,119.99,424.85,117.39,424.96,117.38z"/>
<path class="st0" d="M138.24,62.2L138.24,62.2l-95.58,55.18c0,0,190.15,112.99,191.15,331.09l191.15-110.36l-95.58,55.18
	C328.39,175.37,138.55,62.39,138.24,62.2z"/>
<path class="st0" d="M42.66,117.38v220.73l191.15,110.36C232.81,230.37,42.66,117.38,42.66,117.38z"/>
<polygon class="st0" points="424.96,117.38 424.96,117.38 424.96,338.11 "/>
<polygon class="st0" points="138.23,62.2 138.23,62.2 138.23,62.2 "/>
<path class="st0" d="M424.96,117.38c-0.11,0-189.97,2.61-286.73-55.18c0.31,0.19,190.15,113.17,191.15,331.09l95.58-55.18
	L424.96,117.38L424.96,117.38z"/>
<polygon class="st0" points="138.23,62.2 138.23,62.2 138.24,62.2 "/>
</svg>
