<?xml version="1.0" encoding="utf-8"?>
<!-- Generator: Adobe Illustrator 24.0.1, SVG Export Plug-In . SVG Version: 6.00 Build 0)  -->
<svg version="1.1" id="Layer_1" xmlns="http://www.w3.org/2000/svg" xmlns:xlink="http://www.w3.org/1999/xlink" x="0px" y="0px"
	 viewBox="0 0 457.12 457.12" style="enable-background:new 0 0 457.12 457.12;" xml:space="preserve">
<style type="text/css">
	.st0{fill:none;stroke:#A2A9AD;stroke-width:10;stroke-linecap:round;stroke-linejoin:round;stroke-miterlimit:10;}
</style>
<path class="st0" d="M140.48,211.39c60.23-48.9,150.36-93.18,279.24-93.18L228.56,7.83L37.41,118.19
	C37.41,118.19,90.33,149.65,140.48,211.39z"/>
<path class="st0" d="M140.48,211.39c-50.15-61.73-103.07-93.18-103.07-93.18v220.73C37.41,338.92,66.24,271.65,140.48,211.39z"/>
<path class="st0" d="M37.41,338.92l191.15,110.36c-0.47-103.04-43.17-182.62-88.08-237.9C66.24,271.65,37.41,338.92,37.41,338.92z"
	/>
<path class="st0" d="M140.48,211.39c44.92,55.29,87.61,134.86,88.08,237.9l191.15-110.36V118.19
	C290.83,118.19,200.71,162.49,140.48,211.39z"/>
</svg>
