<?xml version="1.0" encoding="utf-8"?>
<!-- Generator: Adobe Illustrator 19.0.0, SVG Export Plug-In . SVG Version: 6.00 Build 0)  -->
<svg version="1.1" id="Layer_1" xmlns="http://www.w3.org/2000/svg" xmlns:xlink="http://www.w3.org/1999/xlink" x="0px" y="0px"
	 viewBox="-20 -69 750 750" enable-background="new -20 -69 750 750" xml:space="preserve">
<polygon fill="#0C3654" points="355,681 261.2,587.2 355,493.5 "/>
<polygon fill="#0C3654" points="167.5,493.5 261.2,399.8 261.2,587.2 "/>
<polygon fill="#0C3654" points="355,306 355,493.5 261.2,399.8 "/>
<polygon fill="#10B36B" points="261.2,587.2 261.2,399.8 355,493.5 "/>
<polygon fill="#FFFFFF" points="-20,306 73.8,399.8 167.5,306 "/>
<polygon fill="#10B36B" points="167.5,493.5 261.2,399.8 73.8,399.8 "/>
<polygon fill="#10B36B" points="355,306 167.5,306 261.2,399.8 "/>
<polygon fill="#10B36B" points="73.8,399.8 261.2,399.8 167.5,306 "/>
<polygon fill="#10B36B" points="-20,306 73.8,212.2 167.5,306 "/>
<polygon fill="#FFFFFF" points="167.5,118.5 261.2,212.2 73.8,212.2 "/>
<polygon fill="#0C3654" points="355,306 167.5,306 261.2,212.2 "/>
<polygon fill="#10B36B" points="73.8,212.2 261.2,212.2 167.5,306 "/>
<polygon fill="#0C3654" points="355,-69 261.2,24.8 355,118.5 "/>
<polygon fill="#FFFFFF" points="167.5,118.5 261.2,212.2 261.2,24.8 "/>
<polygon fill="#FFFFFF" points="355,306 355,118.5 261.2,212.2 "/>
<polygon fill="#10B36B" points="261.2,24.8 261.2,212.2 355,118.5 "/>
<polygon fill="#0C3654" points="355,-69 448.8,24.8 355,118.5 "/>
<polygon fill="#10B36B" points="542.5,118.5 448.8,212.2 448.8,24.8 "/>
<polygon fill="#10B36B" points="355,306 355,118.5 448.8,212.2 "/>
<polygon fill="#FFFFFF" points="448.8,24.8 448.8,212.2 355,118.5 "/>
<polygon fill="#FFFFFF" points="730,306 636.2,212.2 542.5,306 "/>
<polygon fill="#10B36B" points="542.5,118.5 448.8,212.2 636.2,212.2 "/>
<polygon fill="#0C3654" points="355,306 542.5,306 448.8,212.2 "/>
<polygon fill="#0C3654" points="636.2,212.2 448.8,212.2 542.5,306 "/>
<polygon fill="#FFFFFF" points="730,306 636.2,399.8 542.5,306 "/>
<polygon fill="#FFFFFF" points="542.5,493.5 448.8,399.8 636.2,399.8 "/>
<polygon fill="#10B36B" points="355,306 542.5,306 448.8,399.8 "/>
<polygon fill="#10B36B" points="636.2,399.8 448.8,399.8 542.5,306 "/>
<polygon fill="#FFFFFF" points="355,681 448.8,587.2 355,493.5 "/>
<polygon fill="#10B36B" points="542.5,493.5 448.8,399.8 448.8,587.2 "/>
<polygon fill="#FFFFFF" points="355,306 355,493.5 448.8,399.8 "/>
<polygon fill="#FFFFFF" points="448.8,587.2 448.8,399.8 355,493.5 "/>
</svg>
