<?xml version="1.0" encoding="utf-8"?>
<!-- Generator: Adobe Illustrator 19.0.0, SVG Export Plug-In . SVG Version: 6.00 Build 0)  -->
<svg version="1.1" id="Layer_1" xmlns="http://www.w3.org/2000/svg" xmlns:xlink="http://www.w3.org/1999/xlink" x="0px" y="0px"
	 viewBox="-20 -69 750 750" enable-background="new -20 -69 750 750" xml:space="preserve">
<polygon fill="#FFFFFF" points="355,681 261.2,587.2 292.5,556 "/>
<polygon fill="#FFFFFF" points="167.5,493.5 261.2,587.2 292.5,556 "/>
<polygon fill="#FFFFFF" points="167.5,493.5 261.2,493.5 292.5,556 "/>
<polygon fill="#0C3654" points="355,493.5 261.2,493.5 292.5,556 "/>
<polygon fill="#10B36B" points="355,493.5 355,587.2 292.5,556 "/>
<polygon fill="#10B36B" points="355,681 355,587.2 292.5,556 "/>
<polygon fill="#0C3654" points="-20,306 73.8,306 105,368.5 "/>
<polygon fill="#FFFFFF" points="167.5,306 73.8,306 105,368.5 "/>
<polygon fill="#FFFFFF" points="167.5,306 167.5,399.8 105,368.5 "/>
<polygon fill="#10B36B" points="167.5,493.5 167.5,399.8 105,368.5 "/>
<polygon fill="#FFFFFF" points="167.5,493.5 73.8,399.8 105,368.5 "/>
<polygon fill="#0C3654" points="-20,306 73.8,399.8 105,368.5 "/>
<polygon fill="#0C3654" points="355,306 355,399.8 292.5,368.5 "/>
<polygon fill="#0C3654" points="355,493.5 355,399.8 292.5,368.5 "/>
<polygon fill="#10B36B" points="355,493.5 261.2,399.8 292.5,368.5 "/>
<polygon fill="#0C3654" points="167.5,306 261.2,399.8 292.5,368.5 "/>
<polygon fill="#10B36B" points="167.5,306 261.2,306 292.5,368.5 "/>
<polygon fill="#FFFFFF" points="355,306 261.2,306 292.5,368.5 "/>
<polygon fill="#FFFFFF" points="167.5,493.5 167.5,399.8 230,431 "/>
<polygon fill="#FFFFFF" points="167.5,306 167.5,399.8 230,431 "/>
<polygon fill="#10B36B" points="167.5,306 261.2,399.8 230,431 "/>
<polygon fill="#FFFFFF" points="355,493.5 261.2,399.8 230,431 "/>
<polygon fill="#10B36B" points="355,493.5 261.2,493.5 230,431 "/>
<polygon fill="#FFFFFF" points="167.5,493.5 261.2,493.5 230,431 "/>
<polygon fill="#0C3654" points="-20,306 73.8,212.2 105,243.5 "/>
<polygon fill="#FFFFFF" points="167.5,118.5 73.8,212.2 105,243.5 "/>
<polygon fill="#0C3654" points="167.5,118.5 167.5,212.2 105,243.5 "/>
<polygon fill="#10B36B" points="167.5,306 167.5,212.2 105,243.5 "/>
<polygon fill="#10B36B" points="167.5,306 73.8,306 105,243.5 "/>
<polygon fill="#10B36B" points="-20,306 73.8,306 105,243.5 "/>
<polygon fill="#0C3654" points="355,-69 355,24.8 292.5,56 "/>
<polygon fill="#FFFFFF" points="355,118.5 355,24.8 292.5,56 "/>
<polygon fill="#FFFFFF" points="355,118.5 261.2,118.5 292.5,56 "/>
<polygon fill="#FFFFFF" points="167.5,118.5 261.2,118.5 292.5,56 "/>
<polygon fill="#0C3654" points="167.5,118.5 261.2,24.8 292.5,56 "/>
<polygon fill="#0C3654" points="355,-69 261.2,24.8 292.5,56 "/>
<polygon fill="#10B36B" points="355,306 261.2,306 292.5,243.5 "/>
<polygon fill="#0C3654" points="167.5,306 261.2,306 292.5,243.5 "/>
<polygon fill="#0C3654" points="167.5,306 261.2,212.2 292.5,243.5 "/>
<polygon fill="#10B36B" points="355,118.5 261.2,212.2 292.5,243.5 "/>
<polygon fill="#10B36B" points="355,118.5 355,212.2 292.5,243.5 "/>
<polygon fill="#FFFFFF" points="355,306 355,212.2 292.5,243.5 "/>
<polygon fill="#0C3654" points="167.5,118.5 261.2,118.5 230,181 "/>
<polygon fill="#0C3654" points="355,118.5 261.2,118.5 230,181 "/>
<polygon fill="#10B36B" points="355,118.5 261.2,212.2 230,181 "/>
<polygon fill="#FFFFFF" points="167.5,306 261.2,212.2 230,181 "/>
<polygon fill="#0C3654" points="167.5,306 167.5,212.2 230,181 "/>
<polygon fill="#10B36B" points="167.5,118.5 167.5,212.2 230,181 "/>
<polygon fill="#0C3654" points="355,-69 448.8,24.8 417.5,56 "/>
<polygon fill="#10B36B" points="542.5,118.5 448.8,24.8 417.5,56 "/>
<polygon fill="#FFFFFF" points="542.5,118.5 448.8,118.5 417.5,56 "/>
<polygon fill="#0C3654" points="355,118.5 448.8,118.5 417.5,56 "/>
<polygon fill="#0C3654" points="355,118.5 355,24.8 417.5,56 "/>
<polygon fill="#FFFFFF" points="355,-69 355,24.8 417.5,56 "/>
<polygon fill="#0C3654" points="730,306 636.2,306 605,243.5 "/>
<polygon fill="#10B36B" points="542.5,306 636.2,306 605,243.5 "/>
<polygon fill="#10B36B" points="542.5,306 542.5,212.2 605,243.5 "/>
<polygon fill="#FFFFFF" points="542.5,118.5 542.5,212.2 605,243.5 "/>
<polygon fill="#10B36B" points="542.5,118.5 636.2,212.2 605,243.5 "/>
<polygon fill="#10B36B" points="730,306 636.2,212.2 605,243.5 "/>
<polygon fill="#FFFFFF" points="355,306 355,212.2 417.5,243.5 "/>
<polygon fill="#10B36B" points="355,118.5 355,212.2 417.5,243.5 "/>
<polygon fill="#FFFFFF" points="355,118.5 448.8,212.2 417.5,243.5 "/>
<polygon fill="#10B36B" points="542.5,306 448.8,212.2 417.5,243.5 "/>
<polygon fill="#10B36B" points="542.5,306 448.8,306 417.5,243.5 "/>
<polygon fill="#FFFFFF" points="355,306 448.8,306 417.5,243.5 "/>
<polygon fill="#0C3654" points="542.5,118.5 542.5,212.2 480,181 "/>
<polygon fill="#FFFFFF" points="542.5,306 542.5,212.2 480,181 "/>
<polygon fill="#FFFFFF" points="542.5,306 448.8,212.2 480,181 "/>
<polygon fill="#0C3654" points="355,118.5 448.8,212.2 480,181 "/>
<polygon fill="#10B36B" points="355,118.5 448.8,118.5 480,181 "/>
<polygon fill="#10B36B" points="542.5,118.5 448.8,118.5 480,181 "/>
<polygon fill="#10B36B" points="730,306 636.2,399.8 605,368.5 "/>
<polygon fill="#10B36B" points="542.5,493.5 636.2,399.8 605,368.5 "/>
<polygon fill="#10B36B" points="542.5,493.5 542.5,399.8 605,368.5 "/>
<polygon fill="#FFFFFF" points="542.5,306 542.5,399.8 605,368.5 "/>
<polygon fill="#FFFFFF" points="542.5,306 636.2,306 605,368.5 "/>
<polygon fill="#10B36B" points="730,306 636.2,306 605,368.5 "/>
<polygon fill="#0C3654" points="355,681 355,587.2 417.5,556 "/>
<polygon fill="#0C3654" points="355,493.5 355,587.2 417.5,556 "/>
<polygon fill="#FFFFFF" points="355,493.5 448.8,493.5 417.5,556 "/>
<polygon fill="#10B36B" points="542.5,493.5 448.8,493.5 417.5,556 "/>
<polygon fill="#10B36B" points="542.5,493.5 448.8,587.2 417.5,556 "/>
<polygon fill="#10B36B" points="355,681 448.8,587.2 417.5,556 "/>
<polygon fill="#10B36B" points="355,306 448.8,306 417.5,368.5 "/>
<polygon fill="#0C3654" points="542.5,306 448.8,306 417.5,368.5 "/>
<polygon fill="#0C3654" points="542.5,306 448.8,399.8 417.5,368.5 "/>
<polygon fill="#FFFFFF" points="355,493.5 448.8,399.8 417.5,368.5 "/>
<polygon fill="#10B36B" points="355,493.5 355,399.8 417.5,368.5 "/>
<polygon fill="#FFFFFF" points="355,306 355,399.8 417.5,368.5 "/>
<polygon fill="#FFFFFF" points="542.5,493.5 448.8,493.5 480,431 "/>
<polygon fill="#FFFFFF" points="355,493.5 448.8,493.5 480,431 "/>
<polygon fill="#10B36B" points="355,493.5 448.8,399.8 480,431 "/>
<polygon fill="#10B36B" points="542.5,306 448.8,399.8 480,431 "/>
<polygon fill="#0C3654" points="542.5,306 542.5,399.8 480,431 "/>
<polygon fill="#FFFFFF" points="542.5,493.5 542.5,399.8 480,431 "/>
</svg>
