<?xml version="1.0" encoding="utf-8"?>
<!-- Generator: Adobe Illustrator 19.0.0, SVG Export Plug-In . SVG Version: 6.00 Build 0)  -->
<svg version="1.1" id="Layer_1" xmlns="http://www.w3.org/2000/svg" xmlns:xlink="http://www.w3.org/1999/xlink" x="0px" y="0px"
	 viewBox="-20 -69 750 750" enable-background="new -20 -69 750 750" xml:space="preserve">
<polygon fill="#0C3654" points="355,681 261.2,587.2 323.7,587.2 "/>
<polygon fill="#FFFFFF" points="167.5,493.5 230,493.5 261.2,587.2 "/>
<polygon fill="#10B36B" points="292.5,493.5 323.7,587.2 230,493.5 "/>
<polygon fill="#FFFFFF" points="261.2,587.2 230,493.5 323.7,587.2 "/>
<polygon fill="#FFFFFF" points="167.5,493.5 261.2,399.8 230,493.5 "/>
<polygon fill="#FFFFFF" points="355,306 323.7,399.8 261.2,399.8 "/>
<polygon fill="#0C3654" points="292.5,493.5 230,493.5 323.7,399.8 "/>
<polygon fill="#FFFFFF" points="261.2,399.8 323.7,399.8 230,493.5 "/>
<polygon fill="#FFFFFF" points="355,306 355,493.5 323.7,399.8 "/>
<polygon fill="#FFFFFF" points="355,681 323.7,587.2 355,493.5 "/>
<polygon fill="#10B36B" points="292.5,493.5 323.7,399.8 323.7,587.2 "/>
<polygon fill="#FFFFFF" points="355,493.5 323.7,587.2 323.7,399.8 "/>
<polygon fill="#0C3654" points="-20,306 73.8,399.8 73.8,337.3 "/>
<polygon fill="#0C3654" points="167.5,493.5 167.5,431 73.8,399.8 "/>
<polygon fill="#10B36B" points="167.5,368.5 73.8,337.3 167.5,431 "/>
<polygon fill="#FFFFFF" points="73.8,399.8 167.5,431 73.8,337.3 "/>
<polygon fill="#10B36B" points="167.5,493.5 261.2,399.8 167.5,431 "/>
<polygon fill="#0C3654" points="355,306 261.2,337.3 261.2,399.8 "/>
<polygon fill="#FFFFFF" points="167.5,368.5 167.5,431 261.2,337.3 "/>
<polygon fill="#FFFFFF" points="261.2,399.8 261.2,337.3 167.5,431 "/>
<polygon fill="#FFFFFF" points="355,306 167.5,306 261.2,337.3 "/>
<polygon fill="#0C3654" points="-20,306 73.8,337.3 167.5,306 "/>
<polygon fill="#10B36B" points="167.5,368.5 261.2,337.3 73.8,337.3 "/>
<polygon fill="#FFFFFF" points="167.5,306 73.8,337.3 261.2,337.3 "/>
<polygon fill="#0C3654" points="-20,306 73.8,212.2 73.8,274.7 "/>
<polygon fill="#FFFFFF" points="167.5,118.5 167.5,181 73.8,212.2 "/>
<polygon fill="#10B36B" points="167.5,243.5 73.8,274.7 167.5,181 "/>
<polygon fill="#FFFFFF" points="73.8,212.2 167.5,181 73.8,274.7 "/>
<polygon fill="#FFFFFF" points="167.5,118.5 261.2,212.2 167.5,181 "/>
<polygon fill="#FFFFFF" points="355,306 261.2,274.7 261.2,212.2 "/>
<polygon fill="#10B36B" points="167.5,243.5 167.5,181 261.2,274.7 "/>
<polygon fill="#10B36B" points="261.2,212.2 261.2,274.7 167.5,181 "/>
<polygon fill="#0C3654" points="355,306 167.5,306 261.2,274.7 "/>
<polygon fill="#FFFFFF" points="-20,306 73.8,274.7 167.5,306 "/>
<polygon fill="#FFFFFF" points="167.5,243.5 261.2,274.7 73.8,274.7 "/>
<polygon fill="#10B36B" points="167.5,306 73.8,274.7 261.2,274.7 "/>
<polygon fill="#10B36B" points="355,-69 261.2,24.8 323.7,24.8 "/>
<polygon fill="#0C3654" points="167.5,118.5 230,118.5 261.2,24.8 "/>
<polygon fill="#10B36B" points="292.5,118.5 323.7,24.8 230,118.5 "/>
<polygon fill="#FFFFFF" points="261.2,24.8 230,118.5 323.7,24.8 "/>
<polygon fill="#FFFFFF" points="167.5,118.5 261.2,212.2 230,118.5 "/>
<polygon fill="#FFFFFF" points="355,306 323.7,212.2 261.2,212.2 "/>
<polygon fill="#10B36B" points="292.5,118.5 230,118.5 323.7,212.2 "/>
<polygon fill="#0C3654" points="261.2,212.2 323.7,212.2 230,118.5 "/>
<polygon fill="#10B36B" points="355,306 355,118.5 323.7,212.2 "/>
<polygon fill="#FFFFFF" points="355,-69 323.7,24.8 355,118.5 "/>
<polygon fill="#0C3654" points="292.5,118.5 323.7,212.2 323.7,24.8 "/>
<polygon fill="#FFFFFF" points="355,118.5 323.7,24.8 323.7,212.2 "/>
<polygon fill="#10B36B" points="355,-69 448.8,24.8 386.3,24.8 "/>
<polygon fill="#0C3654" points="542.5,118.5 480,118.5 448.8,24.8 "/>
<polygon fill="#FFFFFF" points="417.5,118.5 386.3,24.8 480,118.5 "/>
<polygon fill="#10B36B" points="448.8,24.8 480,118.5 386.3,24.8 "/>
<polygon fill="#FFFFFF" points="542.5,118.5 448.8,212.2 480,118.5 "/>
<polygon fill="#10B36B" points="355,306 386.3,212.2 448.8,212.2 "/>
<polygon fill="#10B36B" points="417.5,118.5 480,118.5 386.3,212.2 "/>
<polygon fill="#10B36B" points="448.8,212.2 386.3,212.2 480,118.5 "/>
<polygon fill="#FFFFFF" points="355,306 355,118.5 386.3,212.2 "/>
<polygon fill="#10B36B" points="355,-69 386.3,24.8 355,118.5 "/>
<polygon fill="#0C3654" points="417.5,118.5 386.3,212.2 386.3,24.8 "/>
<polygon fill="#10B36B" points="355,118.5 386.3,24.8 386.3,212.2 "/>
<polygon fill="#0C3654" points="730,306 636.2,212.2 636.2,274.7 "/>
<polygon fill="#FFFFFF" points="542.5,118.5 542.5,181 636.2,212.2 "/>
<polygon fill="#0C3654" points="542.5,243.5 636.2,274.7 542.5,181 "/>
<polygon fill="#0C3654" points="636.2,212.2 542.5,181 636.2,274.7 "/>
<polygon fill="#FFFFFF" points="542.5,118.5 448.8,212.2 542.5,181 "/>
<polygon fill="#0C3654" points="355,306 448.8,274.7 448.8,212.2 "/>
<polygon fill="#0C3654" points="542.5,243.5 542.5,181 448.8,274.7 "/>
<polygon fill="#0C3654" points="448.8,212.2 448.8,274.7 542.5,181 "/>
<polygon fill="#0C3654" points="355,306 542.5,306 448.8,274.7 "/>
<polygon fill="#0C3654" points="730,306 636.2,274.7 542.5,306 "/>
<polygon fill="#10B36B" points="542.5,243.5 448.8,274.7 636.2,274.7 "/>
<polygon fill="#0C3654" points="542.5,306 636.2,274.7 448.8,274.7 "/>
<polygon fill="#10B36B" points="730,306 636.2,399.8 636.2,337.3 "/>
<polygon fill="#0C3654" points="542.5,493.5 542.5,431 636.2,399.8 "/>
<polygon fill="#FFFFFF" points="542.5,368.5 636.2,337.3 542.5,431 "/>
<polygon fill="#10B36B" points="636.2,399.8 542.5,431 636.2,337.3 "/>
<polygon fill="#FFFFFF" points="542.5,493.5 448.8,399.8 542.5,431 "/>
<polygon fill="#10B36B" points="355,306 448.8,337.3 448.8,399.8 "/>
<polygon fill="#10B36B" points="542.5,368.5 542.5,431 448.8,337.3 "/>
<polygon fill="#0C3654" points="448.8,399.8 448.8,337.3 542.5,431 "/>
<polygon fill="#FFFFFF" points="355,306 542.5,306 448.8,337.3 "/>
<polygon fill="#10B36B" points="730,306 636.2,337.3 542.5,306 "/>
<polygon fill="#0C3654" points="542.5,368.5 448.8,337.3 636.2,337.3 "/>
<polygon fill="#FFFFFF" points="542.5,306 636.2,337.3 448.8,337.3 "/>
<polygon fill="#FFFFFF" points="355,681 448.8,587.2 386.3,587.2 "/>
<polygon fill="#0C3654" points="542.5,493.5 480,493.5 448.8,587.2 "/>
<polygon fill="#FFFFFF" points="417.5,493.5 386.3,587.2 480,493.5 "/>
<polygon fill="#0C3654" points="448.8,587.2 480,493.5 386.3,587.2 "/>
<polygon fill="#FFFFFF" points="542.5,493.5 448.8,399.8 480,493.5 "/>
<polygon fill="#10B36B" points="355,306 386.3,399.8 448.8,399.8 "/>
<polygon fill="#10B36B" points="417.5,493.5 480,493.5 386.3,399.8 "/>
<polygon fill="#0C3654" points="448.8,399.8 386.3,399.8 480,493.5 "/>
<polygon fill="#FFFFFF" points="355,306 355,493.5 386.3,399.8 "/>
<polygon fill="#0C3654" points="355,681 386.3,587.2 355,493.5 "/>
<polygon fill="#0C3654" points="417.5,493.5 386.3,399.8 386.3,587.2 "/>
<polygon fill="#FFFFFF" points="355,493.5 386.3,587.2 386.3,399.8 "/>
</svg>
