<?xml version="1.0" encoding="utf-8"?>
<!-- Generator: Adobe Illustrator 19.0.0, SVG Export Plug-In . SVG Version: 6.00 Build 0)  -->
<svg version="1.1" id="Layer_1" xmlns="http://www.w3.org/2000/svg" xmlns:xlink="http://www.w3.org/1999/xlink" x="0px" y="0px"
	 viewBox="-20 -69 750 750" enable-background="new -20 -69 750 750" xml:space="preserve">
<polygon fill="#0C3654" points="355,681 261.2,587.2 323.7,608 "/>
<polygon fill="#FFFFFF" points="261.2,587.2 355,556 323.7,608 "/>
<polygon fill="#0C3654" points="355,556 355,681 323.7,608 "/>
<polygon fill="#10B36B" points="167.5,493.5 261.2,587.2 261.2,545.6 "/>
<polygon fill="#0C3654" points="261.2,587.2 355,556 261.2,545.6 "/>
<polygon fill="#10B36B" points="355,556 167.5,493.5 261.2,545.6 "/>
<polygon fill="#10B36B" points="167.5,493.5 355,493.5 292.5,514.3 "/>
<polygon fill="#10B36B" points="355,493.5 355,556 292.5,514.3 "/>
<polygon fill="#10B36B" points="355,556 167.5,493.5 292.5,514.3 "/>
<polygon fill="#FFFFFF" points="542.5,493.5 355,493.5 417.5,514.3 "/>
<polygon fill="#10B36B" points="355,493.5 355,556 417.5,514.3 "/>
<polygon fill="#0C3654" points="355,556 542.5,493.5 417.5,514.3 "/>
<polygon fill="#0C3654" points="542.5,493.5 448.8,587.2 448.8,545.6 "/>
<polygon fill="#10B36B" points="448.8,587.2 355,556 448.8,545.6 "/>
<polygon fill="#0C3654" points="355,556 542.5,493.5 448.8,545.6 "/>
<polygon fill="#0C3654" points="355,681 448.8,587.2 386.3,608 "/>
<polygon fill="#0C3654" points="448.8,587.2 355,556 386.3,608 "/>
<polygon fill="#0C3654" points="355,556 355,681 386.3,608 "/>
<polygon fill="#0C3654" points="-20,306 73.8,212.2 53,274.7 "/>
<polygon fill="#0C3654" points="73.8,212.2 105,306 53,274.7 "/>
<polygon fill="#0C3654" points="105,306 -20,306 53,274.7 "/>
<polygon fill="#10B36B" points="167.5,118.5 73.8,212.2 115.4,212.2 "/>
<polygon fill="#FFFFFF" points="73.8,212.2 105,306 115.4,212.2 "/>
<polygon fill="#10B36B" points="105,306 167.5,118.5 115.4,212.2 "/>
<polygon fill="#0C3654" points="167.5,118.5 167.5,306 146.7,243.5 "/>
<polygon fill="#0C3654" points="167.5,306 105,306 146.7,243.5 "/>
<polygon fill="#0C3654" points="105,306 167.5,118.5 146.7,243.5 "/>
<polygon fill="#0C3654" points="167.5,493.5 167.5,306 146.7,368.5 "/>
<polygon fill="#0C3654" points="167.5,306 105,306 146.7,368.5 "/>
<polygon fill="#FFFFFF" points="105,306 167.5,493.5 146.7,368.5 "/>
<polygon fill="#0C3654" points="167.5,493.5 73.8,399.8 115.4,399.8 "/>
<polygon fill="#10B36B" points="73.8,399.8 105,306 115.4,399.8 "/>
<polygon fill="#0C3654" points="105,306 167.5,493.5 115.4,399.8 "/>
<polygon fill="#FFFFFF" points="-20,306 73.8,399.8 53,337.3 "/>
<polygon fill="#10B36B" points="73.8,399.8 105,306 53,337.3 "/>
<polygon fill="#0C3654" points="105,306 -20,306 53,337.3 "/>
<polygon fill="#FFFFFF" points="355,-69 448.8,24.8 386.3,4 "/>
<polygon fill="#FFFFFF" points="448.8,24.8 355,56 386.3,4 "/>
<polygon fill="#FFFFFF" points="355,56 355,-69 386.3,4 "/>
<polygon fill="#10B36B" points="542.5,118.5 448.8,24.8 448.8,66.4 "/>
<polygon fill="#10B36B" points="448.8,24.8 355,56 448.8,66.4 "/>
<polygon fill="#10B36B" points="355,56 542.5,118.5 448.8,66.4 "/>
<polygon fill="#FFFFFF" points="542.5,118.5 355,118.5 417.5,97.7 "/>
<polygon fill="#FFFFFF" points="355,118.5 355,56 417.5,97.7 "/>
<polygon fill="#FFFFFF" points="355,56 542.5,118.5 417.5,97.7 "/>
<polygon fill="#10B36B" points="167.5,118.5 355,118.5 292.5,97.7 "/>
<polygon fill="#FFFFFF" points="355,118.5 355,56 292.5,97.7 "/>
<polygon fill="#0C3654" points="355,56 167.5,118.5 292.5,97.7 "/>
<polygon fill="#0C3654" points="167.5,118.5 261.2,24.8 261.2,66.4 "/>
<polygon fill="#0C3654" points="261.2,24.8 355,56 261.2,66.4 "/>
<polygon fill="#0C3654" points="355,56 167.5,118.5 261.2,66.4 "/>
<polygon fill="#0C3654" points="355,-69 261.2,24.8 323.7,4 "/>
<polygon fill="#10B36B" points="261.2,24.8 355,56 323.7,4 "/>
<polygon fill="#10B36B" points="355,56 355,-69 323.7,4 "/>
<polygon fill="#0C3654" points="730,306 636.2,399.8 657,337.3 "/>
<polygon fill="#10B36B" points="636.2,399.8 605,306 657,337.3 "/>
<polygon fill="#FFFFFF" points="605,306 730,306 657,337.3 "/>
<polygon fill="#0C3654" points="542.5,493.5 636.2,399.8 594.6,399.8 "/>
<polygon fill="#FFFFFF" points="636.2,399.8 605,306 594.6,399.8 "/>
<polygon fill="#FFFFFF" points="605,306 542.5,493.5 594.6,399.8 "/>
<polygon fill="#FFFFFF" points="542.5,493.5 542.5,306 563.3,368.5 "/>
<polygon fill="#0C3654" points="542.5,306 605,306 563.3,368.5 "/>
<polygon fill="#10B36B" points="605,306 542.5,493.5 563.3,368.5 "/>
<polygon fill="#10B36B" points="542.5,118.5 542.5,306 563.3,243.5 "/>
<polygon fill="#0C3654" points="542.5,306 605,306 563.3,243.5 "/>
<polygon fill="#10B36B" points="605,306 542.5,118.5 563.3,243.5 "/>
<polygon fill="#FFFFFF" points="542.5,118.5 636.2,212.2 594.6,212.2 "/>
<polygon fill="#FFFFFF" points="636.2,212.2 605,306 594.6,212.2 "/>
<polygon fill="#FFFFFF" points="605,306 542.5,118.5 594.6,212.2 "/>
<polygon fill="#FFFFFF" points="730,306 636.2,212.2 657,274.7 "/>
<polygon fill="#10B36B" points="636.2,212.2 605,306 657,274.7 "/>
<polygon fill="#0C3654" points="605,306 730,306 657,274.7 "/>
<polygon fill="#FFFFFF" points="167.5,493.5 167.5,306 230,368.5 "/>
<polygon fill="#FFFFFF" points="167.5,306 355,306 230,368.5 "/>
<polygon fill="#0C3654" points="355,306 167.5,493.5 230,368.5 "/>
<polygon fill="#FFFFFF" points="167.5,118.5 167.5,306 230,243.5 "/>
<polygon fill="#FFFFFF" points="167.5,306 355,306 230,243.5 "/>
<polygon fill="#0C3654" points="355,306 167.5,118.5 230,243.5 "/>
<polygon fill="#0C3654" points="167.5,118.5 355,118.5 292.5,181 "/>
<polygon fill="#0C3654" points="355,118.5 355,306 292.5,181 "/>
<polygon fill="#0C3654" points="355,306 167.5,118.5 292.5,181 "/>
<polygon fill="#FFFFFF" points="542.5,118.5 355,118.5 417.5,181 "/>
<polygon fill="#FFFFFF" points="355,118.5 355,306 417.5,181 "/>
<polygon fill="#0C3654" points="355,306 542.5,118.5 417.5,181 "/>
<polygon fill="#10B36B" points="542.5,118.5 542.5,306 480,243.5 "/>
<polygon fill="#FFFFFF" points="542.5,306 355,306 480,243.5 "/>
<polygon fill="#FFFFFF" points="355,306 542.5,118.5 480,243.5 "/>
<polygon fill="#FFFFFF" points="542.5,493.5 542.5,306 480,368.5 "/>
<polygon fill="#10B36B" points="542.5,306 355,306 480,368.5 "/>
<polygon fill="#FFFFFF" points="355,306 542.5,493.5 480,368.5 "/>
<polygon fill="#10B36B" points="542.5,493.5 355,493.5 417.5,431 "/>
<polygon fill="#0C3654" points="355,493.5 355,306 417.5,431 "/>
<polygon fill="#10B36B" points="355,306 542.5,493.5 417.5,431 "/>
<polygon fill="#10B36B" points="167.5,493.5 355,493.5 292.5,431 "/>
<polygon fill="#0C3654" points="355,493.5 355,306 292.5,431 "/>
<polygon fill="#0C3654" points="355,306 167.5,493.5 292.5,431 "/>
</svg>
